<svg width="80" height="80" viewBox="0 0 80 80" fill="none" xmlns="http://www.w3.org/2000/svg">
  <rect width="80" height="80" rx="40" fill="#1a1a1a"/>
  <g transform="translate(20, 20)">
    <!-- Heating/Cooling Unit -->
    <rect x="8" y="14" width="24" height="16" rx="2" stroke="white" stroke-width="2" fill="none"/>
    <rect x="12" y="18" width="16" height="8" rx="1" fill="white"/>
    
    <!-- Maintenance checklist -->
    <rect x="4" y="6" width="12" height="16" rx="1" stroke="white" stroke-width="2" fill="none"/>
    <path d="M7 10L9 12L13 8" stroke="white" stroke-width="2" stroke-linecap="round" stroke-linejoin="round"/>
    <path d="M7 14L9 16L13 12" stroke="white" stroke-width="2" stroke-linecap="round" stroke-linejoin="round"/>
    <path d="M7 18L9 20L13 16" stroke="white" stroke-width="2" stroke-linecap="round" stroke-linejoin="round"/>
    
    <!-- Cleaning brush -->
    <rect x="34" y="8" width="2" height="12" fill="white" transform="rotate(45 35 14)"/>
    <circle cx="35" cy="6" r="2" fill="white"/>
    
    <!-- Maintenance schedule/calendar -->
    <rect x="24" y="32" width="12" height="8" rx="1" stroke="white" stroke-width="2" fill="none"/>
    <rect x="26" y="30" width="2" height="4" fill="white"/>
    <rect x="32" y="30" width="2" height="4" fill="white"/>
    <circle cx="28" cy="36" r="1" fill="white"/>
    <circle cx="32" cy="36" r="1" fill="white"/>
  </g>
</svg>